<svg width="22" height="22" viewBox="0 0 22 22" fill="none" xmlns="http://www.w3.org/2000/svg">
<circle cx="11" cy="11" r="11" fill="white"/>
<g clip-path="url(#clip0_68_511)">
<path d="M18.1993 11.1348C18.1993 10.5443 18.1502 10.1134 18.0441 9.6665H11.1436V12.3318H15.194C15.1124 12.9942 14.6714 13.9917 13.6914 14.662L13.6777 14.7513L15.8595 16.403L16.0107 16.4177C17.3989 15.1648 18.1993 13.3214 18.1993 11.1348Z" fill="#4285F4"/>
<path d="M11.1436 18.1574C13.128 18.1574 14.794 17.519 16.0108 16.4178L13.6915 14.6621C13.0709 15.085 12.2379 15.3803 11.1436 15.3803C9.20007 15.3803 7.55048 14.1274 6.96244 12.3958L6.87625 12.4029L4.60755 14.1186L4.57788 14.1992C5.78649 16.5454 8.26906 18.1574 11.1436 18.1574Z" fill="#34A853"/>
<path d="M6.96246 12.3957C6.8073 11.9488 6.7175 11.47 6.7175 10.9753C6.7175 10.4805 6.8073 10.0017 6.95429 9.55478L6.95018 9.45961L4.65305 7.71631L4.5779 7.75124C4.07977 8.72483 3.79395 9.81814 3.79395 10.9753C3.79395 12.1324 4.07977 13.2256 4.5779 14.1992L6.96246 12.3957Z" fill="#FBBC05"/>
<path d="M11.1436 6.57029C12.5237 6.57029 13.4547 7.15284 13.9855 7.63966L16.0598 5.66057C14.7858 4.50345 13.128 3.79321 11.1436 3.79321C8.26906 3.79321 5.78649 5.40519 4.57788 7.75134L6.95428 9.55488C7.55048 7.82319 9.20007 6.57029 11.1436 6.57029Z" fill="#EB4335"/>
</g>
<defs>
<clipPath id="clip0_68_511">
<rect width="14.4138" height="14.4138" fill="white" transform="translate(3.79321 3.79321)"/>
</clipPath>
</defs>
</svg>
