<svg width="18" height="18" viewBox="0 0 18 18" fill="none" xmlns="http://www.w3.org/2000/svg">
<path d="M6.75 12.825C6.6 12.675 6.525 12.4917 6.525 12.275C6.525 12.0583 6.6 11.8833 6.75 11.75L8.75 9.75H0.75C0.533333 9.75 0.354167 9.67917 0.2125 9.5375C0.0708334 9.39583 0 9.21667 0 9C0 8.78333 0.0708334 8.60417 0.2125 8.4625C0.354167 8.32083 0.533333 8.25 0.75 8.25H8.7L6.675 6.225C6.54167 6.09167 6.475 5.92083 6.475 5.7125C6.475 5.50417 6.55 5.325 6.7 5.175C6.85 5.025 7.02917 4.95 7.2375 4.95C7.44583 4.95 7.625 5.025 7.775 5.175L11.1 8.5C11.1833 8.58333 11.2417 8.66667 11.275 8.75C11.3083 8.83333 11.325 8.925 11.325 9.025C11.325 9.125 11.3083 9.21667 11.275 9.3C11.2417 9.38333 11.1833 9.46667 11.1 9.55L7.8 12.85C7.66667 12.9833 7.49583 13.05 7.2875 13.05C7.07917 13.05 6.9 12.975 6.75 12.825ZM9.975 18C9.75833 18 9.57917 17.9292 9.4375 17.7875C9.29583 17.6458 9.225 17.4667 9.225 17.25C9.225 17.0333 9.29583 16.8542 9.4375 16.7125C9.57917 16.5708 9.75833 16.5 9.975 16.5H16.5V1.5H9.975C9.75833 1.5 9.57917 1.42917 9.4375 1.2875C9.29583 1.14583 9.225 0.966667 9.225 0.75C9.225 0.533333 9.29583 0.354167 9.4375 0.2125C9.57917 0.0708334 9.75833 0 9.975 0H16.5C16.9 0 17.25 0.15 17.55 0.45C17.85 0.75 18 1.1 18 1.5V16.5C18 16.9 17.85 17.25 17.55 17.55C17.25 17.85 16.9 18 16.5 18H9.975Z" fill="#5A81FA"/>
</svg>
