<svg width="24" height="24" viewBox="0 0 24 24" fill="none" xmlns="http://www.w3.org/2000/svg">
<path d="M17.5 17.1C17.3 16.9 17.2 16.6556 17.2 16.3667C17.2 16.0778 17.3 15.8444 17.5 15.6667L20.1667 13H9.5C9.21111 13 8.97222 12.9056 8.78333 12.7167C8.59444 12.5278 8.5 12.2889 8.5 12C8.5 11.7111 8.59444 11.4722 8.78333 11.2833C8.97222 11.0944 9.21111 11 9.5 11H20.1L17.4 8.3C17.2222 8.12222 17.1333 7.89444 17.1333 7.61667C17.1333 7.33889 17.2333 7.1 17.4333 6.9C17.6333 6.7 17.8722 6.6 18.15 6.6C18.4278 6.6 18.6667 6.7 18.8667 6.9L23.3 11.3333C23.4111 11.4444 23.4889 11.5556 23.5333 11.6667C23.5778 11.7778 23.6 11.9 23.6 12.0333C23.6 12.1667 23.5778 12.2889 23.5333 12.4C23.4889 12.5111 23.4111 12.6222 23.3 12.7333L18.9 17.1333C18.7222 17.3111 18.4944 17.4 18.2167 17.4C17.9389 17.4 17.7 17.3 17.5 17.1V17.1ZM2 24C1.46667 24 1 23.8 0.6 23.4C0.2 23 0 22.5333 0 22V2C0 1.46667 0.2 1 0.6 0.6C1 0.2 1.46667 0 2 0H10.7C10.9889 0 11.2278 0.0944446 11.4167 0.283333C11.6056 0.472222 11.7 0.711111 11.7 1C11.7 1.28889 11.6056 1.52778 11.4167 1.71667C11.2278 1.90556 10.9889 2 10.7 2H2V22H10.7C10.9889 22 11.2278 22.0944 11.4167 22.2833C11.6056 22.4722 11.7 22.7111 11.7 23C11.7 23.2889 11.6056 23.5278 11.4167 23.7167C11.2278 23.9056 10.9889 24 10.7 24H2Z" fill="#2B308C"/>
</svg>
