<svg width="92" height="47" viewBox="0 0 92 47" fill="none" xmlns="http://www.w3.org/2000/svg">
<path d="M11.76 38L6.6 21.2H6.48C6.5 21.6 6.53 22.2 6.57 23C6.61 23.8 6.65 24.66 6.69 25.58C6.73 26.48 6.75 27.3 6.75 28.04V38H2.7V16.58H8.88L13.95 32.96H14.04L19.41 16.58H25.59V38H21.36V27.86C21.36 27.18 21.37 26.4 21.39 25.52C21.43 24.64 21.46 23.81 21.48 23.03C21.52 22.23 21.55 21.63 21.57 21.23H21.45L15.93 38H11.76ZM35.1108 21.62V38H30.6408V21.62H35.1108ZM32.8908 15.2C33.5508 15.2 34.1208 15.36 34.6008 15.68C35.0808 15.98 35.3208 16.55 35.3208 17.39C35.3208 18.21 35.0808 18.78 34.6008 19.1C34.1208 19.42 33.5508 19.58 32.8908 19.58C32.2108 19.58 31.6308 19.42 31.1508 19.1C30.6908 18.78 30.4608 18.21 30.4608 17.39C30.4608 16.55 30.6908 15.98 31.1508 15.68C31.6308 15.36 32.2108 15.2 32.8908 15.2ZM46.8014 16.58C48.7014 16.58 50.2914 16.76 51.5714 17.12C52.8714 17.46 53.8414 18.03 54.4814 18.83C55.1414 19.61 55.4714 20.67 55.4714 22.01C55.4714 22.81 55.3414 23.54 55.0814 24.2C54.8214 24.86 54.4414 25.4 53.9414 25.82C53.4614 26.24 52.8714 26.51 52.1714 26.63V26.78C52.8914 26.92 53.5414 27.17 54.1214 27.53C54.7014 27.89 55.1614 28.41 55.5014 29.09C55.8414 29.77 56.0114 30.67 56.0114 31.79C56.0114 33.09 55.6914 34.21 55.0514 35.15C54.4314 36.07 53.5314 36.78 52.3514 37.28C51.1714 37.76 49.7714 38 48.1514 38H40.1414V16.58H46.8014ZM47.3114 25.07C48.6314 25.07 49.5414 24.86 50.0414 24.44C50.5614 24.02 50.8214 23.41 50.8214 22.61C50.8214 21.79 50.5214 21.2 49.9214 20.84C49.3214 20.48 48.3714 20.3 47.0714 20.3H44.6714V25.07H47.3114ZM44.6714 28.67V34.25H47.6414C49.0014 34.25 49.9514 33.99 50.4914 33.47C51.0314 32.93 51.3014 32.22 51.3014 31.34C51.3014 30.8 51.1814 30.33 50.9414 29.93C50.7214 29.53 50.3314 29.22 49.7714 29C49.2114 28.78 48.4514 28.67 47.4914 28.67H44.6714ZM60.2977 38V16.58H64.8277V34.25H73.5277V38H60.2977ZM89.5905 38H77.2605V16.58H89.5905V20.3H81.7905V25.01H89.0505V28.73H81.7905V34.25H89.5905V38Z" fill="black"/>
<rect x="25.1924" y="26.163" width="11" height="11" rx="3" transform="rotate(-45 25.1924 26.163)" fill="#ECAF95"/>
<rect x="34.3848" y="16.9706" width="11" height="11" rx="3" transform="rotate(-45 34.3848 16.9706)" fill="#ECAF95"/>
<rect x="16" y="16.9706" width="11" height="11" rx="3" transform="rotate(-45 16 16.9706)" fill="#ECAF95"/>
<rect x="25.1924" y="7.7782" width="11" height="11" rx="3" transform="rotate(-45 25.1924 7.7782)" fill="#ECAF95"/>
</svg>
