<svg width="24" height="24" viewBox="0 0 24 24" fill="none" xmlns="http://www.w3.org/2000/svg">
<path fill-rule="evenodd" clip-rule="evenodd" d="M24 12C24 18.6274 18.6274 24 12 24C5.37258 24 0 18.6274 0 12C0 5.37258 5.37258 0 12 0C18.6274 0 24 5.37258 24 12ZM15.6 7.2C15.6 9.18822 13.9883 10.8 12 10.8C10.0118 10.8 8.4 9.18822 8.4 7.2C8.4 5.21178 10.0118 3.6 12 3.6C13.9883 3.6 15.6 5.21178 15.6 7.2ZM12 13.2C8.70039 13.2 5.78958 14.8646 4.0616 17.4C5.78958 19.9354 8.70039 21.6 12 21.6C15.2996 21.6 18.2104 19.9354 19.9384 17.4C18.2104 14.8646 15.2996 13.2 12 13.2Z" fill="#515154"/>
</svg>
